<?xml version="1.0"?>
<svg xmlns="http://www.w3.org/2000/svg" xmlns:xlink="http://www.w3.org/1999/xlink" xmlns:svgjs="http://svgjs.com/svgjs" version="1.1" width="512" height="512" x="0" y="0" viewBox="0 0 511.99934 511" style="enable-background:new 0 0 512 512" xml:space="preserve" class=""><g><path xmlns="http://www.w3.org/2000/svg" d="m255.992188 512.441406c-5.875 0-11.449219-3.472656-13.851563-9.230468l-171.121094-410.382813c-3.1875-7.644531.425781-16.429687 8.074219-19.617187 7.644531-3.183594 16.425781.429687 19.617188 8.074218l171.117187 410.378906c3.1875 7.644532-.425781 16.429688-8.070313 19.617188-1.886718.785156-3.84375 1.160156-5.765624 1.160156zm0 0" fill="#63a91f" data-original="#227351" style="" class=""/><path xmlns="http://www.w3.org/2000/svg" d="m255.992188 512.441406c-1.308594 0-2.640626-.175781-3.96875-.539062-7.988282-2.1875-12.691407-10.4375-10.507813-18.425782l48.222656-176.140624c9.597657-35.054688 25.042969-67.917969 45.910157-97.671876l81.652343-116.441406c4.757813-6.78125 14.109375-8.425781 20.894531-3.667968 6.78125 4.753906 8.425782 14.109374 3.667969 20.890624l-81.652343 116.441407c-18.878907 26.921875-32.855469 56.652343-41.539063 88.371093l-48.21875 176.140626c-1.828125 6.664062-7.867187 11.042968-14.460937 11.042968zm0 0" fill="#63a91f" data-original="#227351" style="" class=""/><path xmlns="http://www.w3.org/2000/svg" d="m255.984375 512.46875c-68.375 0-132.660156-26.628906-181.007813-74.976562-48.347656-48.347657-74.976562-112.632813-74.976562-181.007813s26.628906-132.660156 74.976562-181.007813c48.347657-48.347656 112.632813-74.976562 181.007813-74.976562s132.660156 26.628906 181.007813 74.976562c48.351562 48.347657 74.976562 112.632813 74.976562 181.007813s-26.628906 132.660156-74.976562 181.011719c-48.347657 48.347656-112.632813 74.972656-181.007813 74.972656zm0-481.972656c-60.363281 0-117.113281 23.507812-159.796875 66.191406s-66.1875 99.433594-66.1875 159.796875 23.503906 117.113281 66.1875 159.796875 99.433594 66.1875 159.796875 66.1875 117.113281-23.503906 159.796875-66.1875 66.191406-99.433594 66.191406-159.796875-23.507812-117.113281-66.191406-159.796875-99.433594-66.191406-159.796875-66.191406zm0 0" fill="#8a5e4f" data-original="#349e6b" style="" class=""/><path xmlns="http://www.w3.org/2000/svg" d="m387.609375 235.007812c-19.742187 0-34.144531-2.988281-34.898437-3.144531-3.988282-.847656-7.464844-3.28125-9.625-6.742187-.511719-.820313-12.621094-20.421875-19.78125-47.1875-9.898438-37.019532-5.636719-70.152344 12.335937-95.8125 41.140625-58.761719 145.964844-67.128906 150.40625-67.453125 7.105469-.539063 13.597656 4.023437 15.535156 10.878906 1.210938 4.285156 29.199219 105.644531-11.945312 164.40625-17.96875 25.660156-47.640625 41-85.8125 44.355469-5.664063.5-11.117188.699218-16.214844.699218zm0 0" fill="#63a91f" data-original="#a7d533" style="" class=""/><path xmlns="http://www.w3.org/2000/svg" d="m352.710938 231.859375c.753906.160156 15.15625 3.144531 34.898437 3.144531 5.09375 0 10.550781-.199218 16.210937-.695312 38.171876-3.355469 67.847657-18.695313 85.816407-44.359375 41.144531-58.757813 13.15625-160.121094 11.945312-164.40625-.789062-2.792969-2.34375-5.195313-4.378906-7.035157l-148.390625 211.925782c1.21875.644531 2.527344 1.136718 3.898438 1.425781zm0 0" fill="#63a91f" data-original="#49ba6e" style="" class=""/><path xmlns="http://www.w3.org/2000/svg" d="m304.214844 336.300781c-1.308594 0-2.644532-.175781-3.96875-.539062-7.988282-2.1875-12.695313-10.4375-10.507813-18.425781 9.597657-35.054688 25.042969-67.917969 45.910157-97.671876l81.652343-116.441406c4.757813-6.78125 14.109375-8.425781 20.894531-3.667968 6.78125 4.753906 8.425782 14.109374 3.667969 20.890624l-81.652343 116.441407c-18.878907 26.921875-32.855469 56.652343-41.539063 88.371093-1.824219 6.664063-7.867187 11.042969-14.457031 11.042969zm0 0" fill="#63a91f" data-original="#227351" style="" class=""/></g></svg>
